<svg width="35" height="35" viewBox="0 0 35 35" fill="none" xmlns="http://www.w3.org/2000/svg">
<mask id="mask0_15_572" style="mask-type:alpha" maskUnits="userSpaceOnUse" x="0" y="0" width="35" height="35">
<rect width="35" height="35" fill="#D9D9D9"/>
</mask>
<g mask="url(#mask0_15_572)">
<path d="M17.4999 33.5421C14.7777 33.5421 12.2742 32.9223 9.98952 31.6827C7.70479 30.4431 5.83327 28.7903 4.37493 26.7244V30.6254H1.45827V21.8754H10.2083V24.7921H6.59889C7.76556 26.5421 9.30289 27.9518 11.2109 29.0212C13.1189 30.0907 15.2152 30.6254 17.4999 30.6254C19.3228 30.6254 21.0303 30.2791 22.6223 29.5863C24.2143 28.8936 25.5998 27.9579 26.7786 26.7791C27.9574 25.6002 28.8932 24.2148 29.5859 22.6228C30.2786 21.0308 30.6249 19.3233 30.6249 17.5004H33.5416C33.5416 19.7122 33.1223 21.7903 32.2838 23.7348C31.4452 25.6792 30.2968 27.3806 28.8385 28.8389C27.3801 30.2973 25.6788 31.4457 23.7343 32.2843C21.7899 33.1228 19.7117 33.5421 17.4999 33.5421ZM16.1874 27.7087V25.8129C15.0451 25.5455 14.1154 25.0534 13.3984 24.3363C12.6814 23.6193 12.1527 22.6775 11.8124 21.5108L14.2187 20.5629C14.5104 21.5594 14.9661 22.3068 15.5859 22.8051C16.2057 23.3034 16.9166 23.5525 17.7187 23.5525C18.5208 23.5525 19.2074 23.3641 19.7786 22.9874C20.3498 22.6106 20.6354 22.0212 20.6354 21.2192C20.6354 20.5143 20.3376 19.9431 19.7421 19.5056C19.1466 19.0681 18.0833 18.5699 16.552 18.0108C15.118 17.5004 14.0668 16.8928 13.3984 16.1879C12.73 15.483 12.3958 14.5594 12.3958 13.4171C12.3958 12.4205 12.7421 11.5152 13.4348 10.7009C14.1275 9.88669 15.0694 9.35805 16.2604 9.11499V7.29207H18.8124V9.11499C19.6874 9.18791 20.4834 9.54034 21.2005 10.1723C21.9175 10.8042 22.4097 11.5455 22.677 12.3962L20.3437 13.3442C20.1492 12.7851 19.8333 12.3172 19.3958 11.9405C18.9583 11.5638 18.3506 11.3754 17.5728 11.3754C16.7222 11.3754 16.072 11.5577 15.6223 11.9223C15.1727 12.2869 14.9479 12.7851 14.9479 13.4171C14.9479 14.049 15.2274 14.5473 15.7864 14.9119C16.3454 15.2764 17.3541 15.7018 18.8124 16.1879C20.5624 16.8199 21.7291 17.5612 22.3124 18.4119C22.8958 19.2626 23.1874 20.1983 23.1874 21.2192C23.1874 21.924 23.0659 22.5438 22.8228 23.0785C22.5798 23.6133 22.2577 24.069 21.8567 24.4457C21.4557 24.8225 20.9878 25.1263 20.4531 25.3572C19.9183 25.5881 19.3472 25.7643 18.7395 25.8858V27.7087H16.1874ZM1.45827 17.5004C1.45827 15.2886 1.87754 13.2105 2.71608 11.266C3.55462 9.32159 4.70306 7.6202 6.16139 6.16187C7.61973 4.70353 9.32111 3.55509 11.2656 2.71655C13.21 1.87801 15.2881 1.45874 17.4999 1.45874C20.2222 1.45874 22.7256 2.07853 25.0103 3.31812C27.2951 4.5577 29.1666 6.21048 30.6249 8.27645V4.37541H33.5416V13.1254H24.7916V10.2087H28.401C27.2343 8.45874 25.697 7.04902 23.789 5.97957C21.881 4.91013 19.7847 4.37541 17.4999 4.37541C15.677 4.37541 13.9696 4.72176 12.3775 5.41447C10.7855 6.10718 9.40011 7.04294 8.22129 8.22176C7.04247 9.40058 6.1067 10.786 5.414 12.378C4.72129 13.97 4.37493 15.6775 4.37493 17.5004H1.45827Z" fill="white"/>
</g>
</svg>
