<svg width="25" height="25" viewBox="0 0 25 25" fill="none" xmlns="http://www.w3.org/2000/svg">
<mask id="mask0_69_97" style="mask-type:alpha" maskUnits="userSpaceOnUse" x="0" y="0" width="25" height="25">
<rect x="0.795349" y="0.773682" width="24" height="24" fill="#D9D9D9"/>
</mask>
<g mask="url(#mask0_69_97)">
<path d="M5.79535 21.7737C5.24535 21.7737 4.77452 21.5778 4.38285 21.1862C3.99118 20.7945 3.79535 20.3237 3.79535 19.7737V5.77368C3.79535 5.22368 3.99118 4.75285 4.38285 4.36118C4.77452 3.96951 5.24535 3.77368 5.79535 3.77368H12.7953V5.77368H5.79535V19.7737H12.7953V21.7737H5.79535ZM16.7953 17.7737L15.4203 16.3237L17.9703 13.7737H9.79535V11.7737H17.9703L15.4203 9.22368L16.7953 7.77368L21.7953 12.7737L16.7953 17.7737Z" fill="white"/>
</g>
</svg>
